<svg width="206" height="66" viewBox="0 0 206 66" fill="none" xmlns="http://www.w3.org/2000/svg">
<path fill-rule="evenodd" clip-rule="evenodd" d="M32.9998 65C38.2972 65 47.355 58.6 47.355 33C47.355 7.4 38.2972 1 32.9998 1C27.7026 1 18.6448 7.83127 18.6448 33C18.6448 58.1688 27.7026 65 32.9998 65Z" stroke="url(#paint0_linear_206_8905)" stroke-opacity="0.88" stroke-width="2" stroke-linecap="round" stroke-linejoin="round"/>
<path fill-rule="evenodd" clip-rule="evenodd" d="M1.92085 49.7621C4.56952 54.0475 15.3143 58.0227 40.1778 44.6132C65.0412 31.2036 66.7283 20.5237 64.0796 16.2383C61.4309 11.9529 50.2674 8.20355 25.8229 21.3873C1.37815 34.5708 -0.727767 45.4767 1.92085 49.7621Z" stroke="url(#paint1_linear_206_8905)" stroke-opacity="0.88" stroke-width="2" stroke-linecap="round" stroke-linejoin="round"/>
<path fill-rule="evenodd" clip-rule="evenodd" d="M1.92053 16.2383C-0.728079 20.5237 0.958964 31.2036 25.8225 44.6132C50.686 58.0227 61.4306 54.0475 64.0793 49.7621C66.728 45.4767 64.6221 34.5708 40.1773 21.3873C15.7328 8.20355 4.56923 11.9529 1.92053 16.2383Z" stroke="url(#paint2_linear_206_8905)" stroke-opacity="0.88" stroke-width="2" stroke-linecap="round" stroke-linejoin="round"/>
<path d="M15 52.3333V14H22.6667V29.3333L38 21.6667V29.3333L53.3333 21.6667V52.3333H15Z" fill="url(#paint3_diamond_206_8905)" stroke="black" stroke-width="2" stroke-linecap="round" stroke-linejoin="round"/>
<path d="M29 34C26.7909 34 25 35.7909 25 38C25 39.8638 26.2748 41.4299 28 41.874C28 43.3469 29.194 44.6669 30.6669 44.6669C31.8977 44.6669 34.4423 44.5726 35.5513 45.5L37.9476 43.1038C38.439 43.4626 39.0778 43.7077 39.8669 43.7077C41.3398 43.7077 42.5338 42.5137 42.5338 41.0408C42.5338 39.8513 41.7344 38.8437 40.659 38.5C41.4673 37.9625 42.0001 37.0435 42.0001 36C42.0001 34.3431 40.6569 33 39.0001 33C38.4743 33 37.98 33.1353 37.5503 33.3729C36.7898 31.9652 35.2124 31 33.5 31C31.5407 31 30.1178 32.2832 29.5 34.0309C29.3362 34.0105 29.1693 34 29 34Z" fill="black" fill-opacity="0.15"/>
<path d="M28 41.874C26.2748 41.4299 25 39.8638 25 38C25 35.7909 26.7909 34 29 34C29.1693 34 29.3362 34.0105 29.5 34.0309C30.1178 32.2832 31.5407 31 33.5 31C35.2124 31 36.7898 31.9652 37.5503 33.3729C37.98 33.1353 38.4743 33 39.0001 33C40.6569 33 42.0001 34.3431 42.0001 36C42.0001 37.0435 41.4673 37.9625 40.659 38.5C41.7344 38.8437 42.5338 39.8513 42.5338 41.0408C42.5338 42.5137 41.3398 43.7077 39.8669 43.7077C38.394 43.7077 37.4446 42.8538 37 42C36.0155 42.5095 34.8043 42.1244 34.2948 41.1399M28 41.874C28 43.3469 29.194 44.6669 30.6669 44.6669C32.267 44.6669 36.0876 44.5075 36.0876 46.641V48.7745M28 41.874C28 40.4011 29.194 39.3331 30.6669 39.3331M31.8698 36.0039C32.4241 35.0439 33.6517 34.715 34.6117 35.2692C35.5717 35.8235 35.9006 37.0511 35.3464 38.0111" stroke="black" stroke-width="2" stroke-linecap="round" stroke-linejoin="round"/>
<path d="M68.183 32.6016C68.1205 31.9714 67.8522 31.4818 67.3783 31.1328C66.9043 30.7839 66.2611 30.6094 65.4486 30.6094C64.8965 30.6094 64.4304 30.6875 64.0502 30.8437C63.6699 30.9948 63.3783 31.2057 63.1752 31.4766C62.9772 31.7474 62.8783 32.0547 62.8783 32.3984C62.8679 32.6849 62.9278 32.9349 63.058 33.1484C63.1934 33.362 63.3783 33.5469 63.6127 33.7031C63.847 33.8542 64.1179 33.987 64.4252 34.1016C64.7324 34.2109 65.0606 34.3047 65.4095 34.3828L66.847 34.7266C67.5449 34.8828 68.1856 35.0911 68.7689 35.3516C69.3522 35.612 69.8574 35.9323 70.2845 36.3125C70.7116 36.6927 71.0423 37.1406 71.2767 37.6562C71.5163 38.1719 71.6387 38.763 71.6439 39.4297C71.6387 40.4089 71.3887 41.2578 70.8939 41.9766C70.4043 42.6901 69.696 43.2448 68.7689 43.6406C67.847 44.0312 66.7351 44.2266 65.433 44.2266C64.1413 44.2266 63.0163 44.0286 62.058 43.6328C61.1048 43.237 60.3601 42.651 59.8236 41.875C59.2923 41.0937 59.0137 40.1276 58.9877 38.9766H62.2611C62.2976 39.513 62.4512 39.9609 62.722 40.3203C62.9981 40.6745 63.3653 40.9427 63.8236 41.125C64.2871 41.3021 64.8106 41.3906 65.3939 41.3906C65.9668 41.3906 66.4642 41.3073 66.8861 41.1406C67.3132 40.974 67.6439 40.7422 67.8783 40.4453C68.1127 40.1484 68.2298 39.8073 68.2298 39.4219C68.2298 39.0625 68.1231 38.7604 67.9095 38.5156C67.7012 38.2708 67.3939 38.0625 66.9877 37.8906C66.5866 37.7187 66.0944 37.5625 65.5111 37.4219L63.7689 36.9844C62.4199 36.6562 61.3548 36.1432 60.5736 35.4453C59.7923 34.7474 59.4043 33.8073 59.4095 32.625C59.4043 31.6562 59.6621 30.8099 60.183 30.0859C60.709 29.362 61.4304 28.7969 62.347 28.3906C63.2637 27.9844 64.3054 27.7812 65.472 27.7812C66.6595 27.7812 67.696 27.9844 68.5814 28.3906C69.472 28.7969 70.1647 29.362 70.6595 30.0859C71.1543 30.8099 71.4095 31.6484 71.4252 32.6016H68.183ZM73.4168 44V32H76.5887V34.1172H76.7293C76.9793 33.4141 77.396 32.8594 77.9793 32.4531C78.5626 32.0469 79.2605 31.8438 80.073 31.8438C80.896 31.8438 81.5965 32.0495 82.1746 32.4609C82.7527 32.8672 83.1382 33.4193 83.3309 34.1172H83.4559C83.7007 33.4297 84.1434 32.8802 84.784 32.4687C85.4298 32.0521 86.1928 31.8438 87.073 31.8438C88.1928 31.8438 89.1017 32.2005 89.7996 32.9141C90.5027 33.6224 90.8543 34.6276 90.8543 35.9297V44H87.534V36.5859C87.534 35.9193 87.3569 35.4193 87.0027 35.0859C86.6486 34.7526 86.2059 34.5859 85.6746 34.5859C85.0704 34.5859 84.5991 34.7786 84.2605 35.1641C83.922 35.5443 83.7527 36.0469 83.7527 36.6719V44H80.5262V36.5156C80.5262 35.9271 80.3569 35.4583 80.0184 35.1094C79.685 34.7604 79.2449 34.5859 78.698 34.5859C78.3283 34.5859 77.9949 34.6797 77.698 34.8672C77.4064 35.0495 77.1746 35.3073 77.0027 35.6406C76.8309 35.9687 76.7449 36.3542 76.7449 36.7969V44H73.4168ZM96.4651 44.2266C95.6995 44.2266 95.0172 44.0938 94.4182 43.8281C93.8192 43.5573 93.3453 43.1589 92.9963 42.6328C92.6526 42.1016 92.4807 41.4401 92.4807 40.6484C92.4807 39.9818 92.6031 39.4219 92.8479 38.9687C93.0927 38.5156 93.426 38.151 93.8479 37.875C94.2698 37.599 94.7489 37.3906 95.2854 37.25C95.8271 37.1094 96.3948 37.0104 96.9885 36.9531C97.6864 36.8802 98.2489 36.8125 98.676 36.75C99.1031 36.6823 99.413 36.5833 99.6057 36.4531C99.7984 36.3229 99.8948 36.1302 99.8948 35.875V35.8281C99.8948 35.3333 99.7385 34.9505 99.426 34.6797C99.1187 34.4089 98.6812 34.2734 98.1135 34.2734C97.5146 34.2734 97.038 34.4062 96.6838 34.6719C96.3297 34.9323 96.0953 35.2604 95.9807 35.6562L92.9026 35.4062C93.0588 34.6771 93.3661 34.0469 93.8245 33.5156C94.2828 32.9792 94.8739 32.5677 95.5979 32.2812C96.3271 31.9896 97.1708 31.8438 98.1291 31.8438C98.7958 31.8438 99.4338 31.9219 100.043 32.0781C100.658 32.2344 101.202 32.4766 101.676 32.8047C102.155 33.1328 102.533 33.5547 102.809 34.0703C103.085 34.5807 103.223 35.1927 103.223 35.9062V44H100.067V42.3359H99.9729C99.7802 42.7109 99.5224 43.0417 99.1995 43.3281C98.8765 43.6094 98.4885 43.8307 98.0354 43.9922C97.5823 44.1484 97.0588 44.2266 96.4651 44.2266ZM97.4182 41.9297C97.9078 41.9297 98.3401 41.8333 98.7151 41.6406C99.0901 41.4427 99.3843 41.1771 99.5979 40.8438C99.8114 40.5104 99.9182 40.1328 99.9182 39.7109V38.4375C99.814 38.5052 99.6708 38.5677 99.4885 38.625C99.3114 38.6771 99.1109 38.7266 98.887 38.7734C98.663 38.8151 98.439 38.8542 98.2151 38.8906C97.9911 38.9219 97.788 38.9505 97.6057 38.9766C97.2151 39.0339 96.8739 39.125 96.5823 39.25C96.2906 39.375 96.064 39.5443 95.9026 39.7578C95.7411 39.9661 95.6604 40.2266 95.6604 40.5391C95.6604 40.9922 95.8245 41.3385 96.1526 41.5781C96.4859 41.8125 96.9078 41.9297 97.4182 41.9297ZM105.365 44V32H108.591V34.0937H108.716C108.935 33.349 109.302 32.7865 109.818 32.4063C110.334 32.0208 110.927 31.8281 111.599 31.8281C111.766 31.8281 111.946 31.8385 112.138 31.8594C112.331 31.8802 112.5 31.9089 112.646 31.9453V34.8984C112.49 34.8516 112.274 34.8099 111.998 34.7734C111.722 34.737 111.469 34.7188 111.24 34.7188C110.75 34.7188 110.313 34.8255 109.927 35.0391C109.547 35.2474 109.245 35.5391 109.021 35.9141C108.802 36.2891 108.693 36.7214 108.693 37.2109V44H105.365ZM120.911 32V34.5H113.685V32H120.911ZM115.325 29.125H118.653V40.3125C118.653 40.6198 118.7 40.8594 118.794 41.0312C118.888 41.1979 119.018 41.3151 119.185 41.3828C119.357 41.4505 119.554 41.4844 119.778 41.4844C119.935 41.4844 120.091 41.4714 120.247 41.4453C120.403 41.4141 120.523 41.3906 120.607 41.375L121.13 43.8516C120.963 43.9036 120.729 43.9635 120.427 44.0313C120.125 44.1042 119.758 44.1484 119.325 44.1641C118.523 44.1953 117.82 44.0885 117.216 43.8437C116.617 43.599 116.151 43.2187 115.818 42.7031C115.484 42.1875 115.32 41.5365 115.325 40.75V29.125ZM127.354 44V28H137.947V30.7891H130.736V34.6016H137.244V37.3906H130.736V44H127.354ZM142.992 44.2266C142.226 44.2266 141.544 44.0938 140.945 43.8281C140.346 43.5573 139.872 43.1589 139.523 42.6328C139.179 42.1016 139.007 41.4401 139.007 40.6484C139.007 39.9818 139.13 39.4219 139.374 38.9687C139.619 38.5156 139.953 38.151 140.374 37.875C140.796 37.599 141.275 37.3906 141.812 37.25C142.354 37.1094 142.921 37.0104 143.515 36.9531C144.213 36.8802 144.775 36.8125 145.203 36.75C145.63 36.6823 145.94 36.5833 146.132 36.4531C146.325 36.3229 146.421 36.1302 146.421 35.875V35.8281C146.421 35.3333 146.265 34.9505 145.953 34.6797C145.645 34.4089 145.208 34.2734 144.64 34.2734C144.041 34.2734 143.565 34.4062 143.21 34.6719C142.856 34.9323 142.622 35.2604 142.507 35.6562L139.429 35.4062C139.585 34.6771 139.893 34.0469 140.351 33.5156C140.809 32.9792 141.4 32.5677 142.124 32.2812C142.854 31.9896 143.697 31.8438 144.656 31.8438C145.322 31.8438 145.96 31.9219 146.57 32.0781C147.184 32.2344 147.729 32.4766 148.203 32.8047C148.682 33.1328 149.059 33.5547 149.335 34.0703C149.611 34.5807 149.749 35.1927 149.749 35.9062V44H146.593V42.3359H146.499C146.307 42.7109 146.049 43.0417 145.726 43.3281C145.403 43.6094 145.015 43.8307 144.562 43.9922C144.109 44.1484 143.585 44.2266 142.992 44.2266ZM143.945 41.9297C144.434 41.9297 144.867 41.8333 145.242 41.6406C145.617 41.4427 145.911 41.1771 146.124 40.8438C146.338 40.5104 146.445 40.1328 146.445 39.7109V38.4375C146.341 38.5052 146.197 38.5677 146.015 38.625C145.838 38.6771 145.637 38.7266 145.414 38.7734C145.19 38.8151 144.966 38.8542 144.742 38.8906C144.518 38.9219 144.315 38.9505 144.132 38.9766C143.742 39.0339 143.4 39.125 143.109 39.25C142.817 39.375 142.591 39.5443 142.429 39.7578C142.268 39.9661 142.187 40.2266 142.187 40.5391C142.187 40.9922 142.351 41.3385 142.679 41.5781C143.012 41.8125 143.434 41.9297 143.945 41.9297ZM157.313 44.2344C156.084 44.2344 155.027 43.974 154.141 43.4531C153.261 42.9271 152.584 42.1979 152.11 41.2656C151.641 40.3333 151.407 39.2604 151.407 38.0469C151.407 36.8177 151.644 35.7396 152.118 34.8125C152.597 33.8802 153.277 33.1536 154.157 32.6328C155.037 32.1068 156.084 31.8438 157.298 31.8438C158.345 31.8438 159.261 32.0339 160.048 32.4141C160.834 32.7943 161.457 33.3281 161.915 34.0156C162.373 34.7031 162.626 35.5104 162.673 36.4375H159.532C159.444 35.8385 159.209 35.3568 158.829 34.9922C158.454 34.6224 157.962 34.4375 157.352 34.4375C156.837 34.4375 156.386 34.5781 156.001 34.8594C155.621 35.1354 155.324 35.5391 155.11 36.0703C154.897 36.6016 154.79 37.2448 154.79 38C154.79 38.7656 154.894 39.4167 155.102 39.9531C155.316 40.4896 155.615 40.8984 156.001 41.1797C156.386 41.4609 156.837 41.6016 157.352 41.6016C157.733 41.6016 158.074 41.5234 158.376 41.3672C158.683 41.2109 158.936 40.9844 159.134 40.6875C159.337 40.3854 159.47 40.0234 159.532 39.6016H162.673C162.621 40.5182 162.371 41.3255 161.923 42.0234C161.48 42.7161 160.868 43.2578 160.087 43.6484C159.306 44.0391 158.381 44.2344 157.313 44.2344ZM170.746 32V34.5H163.52V32H170.746ZM165.16 29.125H168.489V40.3125C168.489 40.6198 168.535 40.8594 168.629 41.0312C168.723 41.1979 168.853 41.3151 169.02 41.3828C169.192 41.4505 169.39 41.4844 169.614 41.4844C169.77 41.4844 169.926 41.4714 170.082 41.4453C170.239 41.4141 170.358 41.3906 170.442 41.375L170.965 43.8516C170.798 43.9036 170.564 43.9635 170.262 44.0313C169.96 44.1042 169.593 44.1484 169.16 44.1641C168.358 44.1953 167.655 44.0885 167.051 43.8437C166.452 43.599 165.986 43.2187 165.653 42.7031C165.319 42.1875 165.155 41.5365 165.16 40.75V29.125ZM177.767 44.2344C176.554 44.2344 175.504 43.9766 174.619 43.4609C173.739 42.9401 173.059 42.2161 172.58 41.2891C172.101 40.3568 171.861 39.276 171.861 38.0469C171.861 36.8073 172.101 35.724 172.58 34.7969C173.059 33.8646 173.739 33.1406 174.619 32.625C175.504 32.1042 176.554 31.8438 177.767 31.8438C178.981 31.8438 180.028 32.1042 180.908 32.625C181.793 33.1406 182.476 33.8646 182.955 34.7969C183.434 35.724 183.674 36.8073 183.674 38.0469C183.674 39.276 183.434 40.3568 182.955 41.2891C182.476 42.2161 181.793 42.9401 180.908 43.4609C180.028 43.9766 178.981 44.2344 177.767 44.2344ZM177.783 41.6562C178.335 41.6562 178.796 41.5 179.166 41.1875C179.536 40.8698 179.814 40.4375 180.002 39.8906C180.194 39.3437 180.291 38.7214 180.291 38.0234C180.291 37.3255 180.194 36.7031 180.002 36.1562C179.814 35.6094 179.536 35.1771 179.166 34.8594C178.796 34.5417 178.335 34.3828 177.783 34.3828C177.226 34.3828 176.757 34.5417 176.377 34.8594C176.002 35.1771 175.718 35.6094 175.525 36.1562C175.338 36.7031 175.244 37.3255 175.244 38.0234C175.244 38.7214 175.338 39.3437 175.525 39.8906C175.718 40.4375 176.002 40.8698 176.377 41.1875C176.757 41.5 177.226 41.6562 177.783 41.6562ZM185.398 44V32H188.624V34.0937H188.749C188.968 33.349 189.335 32.7865 189.851 32.4063C190.366 32.0208 190.96 31.8281 191.632 31.8281C191.799 31.8281 191.978 31.8385 192.171 31.8594C192.364 31.8802 192.533 31.9089 192.679 31.9453V34.8984C192.523 34.8516 192.307 34.8099 192.03 34.7734C191.754 34.737 191.502 34.7188 191.273 34.7188C190.783 34.7188 190.346 34.8255 189.96 35.0391C189.58 35.2474 189.278 35.5391 189.054 35.9141C188.835 36.2891 188.726 36.7214 188.726 37.2109V44H185.398ZM196.38 48.5C195.958 48.5 195.562 48.4661 195.192 48.3984C194.827 48.3359 194.525 48.2552 194.286 48.1562L195.036 45.6719C195.426 45.7917 195.778 45.8568 196.09 45.8672C196.408 45.8776 196.682 45.8047 196.911 45.6484C197.145 45.4922 197.335 45.2266 197.481 44.8516L197.676 44.3438L193.372 32H196.872L199.356 40.8125H199.481L201.989 32H205.512L200.848 45.2969C200.624 45.9427 200.32 46.5052 199.934 46.9844C199.554 47.4688 199.072 47.8411 198.489 48.1016C197.906 48.3672 197.202 48.5 196.38 48.5Z" fill="url(#paint4_linear_206_8905)"/>
<defs>
<linearGradient id="paint0_linear_206_8905" x1="32.9999" y1="1" x2="32.9999" y2="65" gradientUnits="userSpaceOnUse">
<stop stop-color="#312F3A" stop-opacity="0.88"/>
<stop offset="0.399" stop-color="#1A191E" stop-opacity="0.93712"/>
<stop offset="1"/>
</linearGradient>
<linearGradient id="paint1_linear_206_8905" x1="33.0214" y1="12.2512" x2="33.0214" y2="53.8306" gradientUnits="userSpaceOnUse">
<stop stop-color="#312F3A" stop-opacity="0.88"/>
<stop offset="0.399" stop-color="#1A191E" stop-opacity="0.93712"/>
<stop offset="1"/>
</linearGradient>
<linearGradient id="paint2_linear_206_8905" x1="32.9787" y1="12.2512" x2="32.9787" y2="53.8306" gradientUnits="userSpaceOnUse">
<stop stop-color="#312F3A" stop-opacity="0.88"/>
<stop offset="0.399" stop-color="#1A191E" stop-opacity="0.93712"/>
<stop offset="1"/>
</linearGradient>
<radialGradient id="paint3_diamond_206_8905" cx="0" cy="0" r="1" gradientUnits="userSpaceOnUse" gradientTransform="translate(24.5 43) rotate(-30.8157) scale(33.1851)">
<stop stop-color="#F7F7F7"/>
<stop offset="0.465" stop-color="#B1B1B1"/>
<stop offset="1" stop-color="#767474"/>
</radialGradient>
<linearGradient id="paint4_linear_206_8905" x1="151" y1="44" x2="151" y2="14.5" gradientUnits="userSpaceOnUse">
<stop/>
<stop offset="0.535018" stop-color="#383838"/>
<stop offset="1" stop-color="#615C7A"/>
</linearGradient>
</defs>
</svg>
