<svg width="20" height="20" viewBox="0 0 20 20" fill="none" xmlns="http://www.w3.org/2000/svg">
<path fill-rule="evenodd" clip-rule="evenodd" d="M11.875 3.125C11.875 2.77982 12.1548 2.5 12.5 2.5H15C16.3807 2.5 17.5 3.61929 17.5 5V7.5C17.5 7.84518 17.2202 8.125 16.875 8.125C16.5298 8.125 16.25 7.84518 16.25 7.5V5C16.25 4.30964 15.6904 3.75 15 3.75H12.5C12.1548 3.75 11.875 3.47018 11.875 3.125ZM8.125 16.875C8.125 17.2202 7.84518 17.5 7.5 17.5H5C3.61929 17.5 2.5 16.3807 2.5 15V12.5C2.5 12.1548 2.77982 11.875 3.125 11.875C3.47018 11.875 3.75 12.1548 3.75 12.5L3.75 15C3.75 15.6904 4.30964 16.25 5 16.25H7.5C7.84518 16.25 8.125 16.5298 8.125 16.875ZM2.5 7.5C2.5 7.84518 2.77982 8.125 3.125 8.125C3.47018 8.125 3.75 7.84518 3.75 7.5L3.75 5C3.75 4.30964 4.30964 3.75 5 3.75L7.5 3.75C7.84518 3.75 8.125 3.47018 8.125 3.125C8.125 2.77982 7.84518 2.5 7.5 2.5H5C3.61929 2.5 2.5 3.61929 2.5 5V7.5ZM16.875 11.875C17.2202 11.875 17.5 12.1548 17.5 12.5V15C17.5 16.3807 16.3807 17.5 15 17.5H12.5C12.1548 17.5 11.875 17.2202 11.875 16.875C11.875 16.5298 12.1548 16.25 12.5 16.25H15C15.6904 16.25 16.25 15.6904 16.25 15V12.5C16.25 12.1548 16.5298 11.875 16.875 11.875ZM10.221 7.72097C10.0989 7.59893 9.90107 7.59893 9.77903 7.72097L7.67655 9.82345C7.55451 9.94549 7.55451 10.1433 7.67655 10.2654L9.77903 12.3679C9.90107 12.4899 10.0989 12.4899 10.221 12.3679L12.3234 10.2654C12.4455 10.1433 12.4455 9.94549 12.3234 9.82345L10.221 7.72097Z" fill="black" fill-opacity="0.04"/>
<path fill-rule="evenodd" clip-rule="evenodd" d="M11.1049 6.83713L13.2073 8.93961C13.8175 9.5498 13.8175 10.5391 13.2073 11.1493L11.1049 13.2518C10.4947 13.862 9.50534 13.862 8.89514 13.2518L6.79267 11.1493C6.18247 10.5391 6.18247 9.5498 6.79267 8.93961L8.89514 6.83713C9.50534 6.22694 10.4947 6.22694 11.1049 6.83713ZM10.221 7.72102C10.0989 7.59898 9.90107 7.59898 9.77903 7.72102L7.67655 9.82349C7.55451 9.94553 7.55451 10.1434 7.67655 10.2654L9.77903 12.3679C9.90107 12.4899 10.0989 12.4899 10.221 12.3679L12.3234 10.2654C12.4455 10.1434 12.4455 9.94553 12.3234 9.82349L10.221 7.72102Z" fill="black"/>
</svg>
