<svg width="21" height="20" viewBox="0 0 21 20" fill="none" xmlns="http://www.w3.org/2000/svg">
<path d="M18 4.375V6.25H3V4.375C3 4.20924 3.06585 4.05027 3.18306 3.93306C3.30027 3.81585 3.45924 3.75 3.625 3.75H17.375C17.5408 3.75 17.6997 3.81585 17.8169 3.93306C17.9342 4.05027 18 4.20924 18 4.375Z" fill="black" fill-opacity="0.04"/>
<path d="M17.375 3.125H3.625C3.29348 3.125 2.97554 3.2567 2.74112 3.49112C2.5067 3.72554 2.375 4.04348 2.375 4.375V15.625C2.375 15.9565 2.5067 16.2745 2.74112 16.5089C2.97554 16.7433 3.29348 16.875 3.625 16.875H17.375C17.7065 16.875 18.0245 16.7433 18.2589 16.5089C18.4933 16.2745 18.625 15.9565 18.625 15.625V4.375C18.625 4.04348 18.4933 3.72554 18.2589 3.49112C18.0245 3.2567 17.7065 3.125 17.375 3.125ZM17.375 4.375V5.625H3.625V4.375H17.375ZM17.375 15.625H3.625V6.875H17.375V15.625ZM14.25 8.75C14.25 9.74456 13.8549 10.6984 13.1517 11.4017C12.4484 12.1049 11.4946 12.5 10.5 12.5C9.50544 12.5 8.55161 12.1049 7.84835 11.4017C7.14509 10.6984 6.75 9.74456 6.75 8.75C6.75 8.58424 6.81585 8.42527 6.93306 8.30806C7.05027 8.19085 7.20924 8.125 7.375 8.125C7.54076 8.125 7.69973 8.19085 7.81694 8.30806C7.93415 8.42527 8 8.58424 8 8.75C8 9.41304 8.26339 10.0489 8.73223 10.5178C9.20107 10.9866 9.83696 11.25 10.5 11.25C11.163 11.25 11.7989 10.9866 12.2678 10.5178C12.7366 10.0489 13 9.41304 13 8.75C13 8.58424 13.0658 8.42527 13.1831 8.30806C13.3003 8.19085 13.4592 8.125 13.625 8.125C13.7908 8.125 13.9497 8.19085 14.0669 8.30806C14.1842 8.42527 14.25 8.58424 14.25 8.75Z" fill="black"/>
</svg>
