<svg width="21" height="20" viewBox="0 0 21 20" fill="none" xmlns="http://www.w3.org/2000/svg">
<path d="M16.125 5.625V14.375C16.125 14.5408 16.0592 14.6997 15.9419 14.8169C15.8247 14.9342 15.6658 15 15.5 15H12.375C12.2092 15 12.0503 14.9342 11.9331 14.8169C11.8158 14.6997 11.75 14.5408 11.75 14.375V5.625C11.75 5.45924 11.8158 5.30027 11.9331 5.18306C12.0503 5.06585 12.2092 5 12.375 5H15.5C15.6658 5 15.8247 5.06585 15.9419 5.18306C16.0592 5.30027 16.125 5.45924 16.125 5.625ZM8.625 3.125H5.5C5.33424 3.125 5.17527 3.19085 5.05806 3.30806C4.94085 3.42527 4.875 3.58424 4.875 3.75V16.25C4.875 16.4158 4.94085 16.5747 5.05806 16.6919C5.17527 16.8092 5.33424 16.875 5.5 16.875H8.625C8.79076 16.875 8.94973 16.8092 9.06694 16.6919C9.18415 16.5747 9.25 16.4158 9.25 16.25V3.75C9.25 3.58424 9.18415 3.42527 9.06694 3.30806C8.94973 3.19085 8.79076 3.125 8.625 3.125Z" fill="black" fill-opacity="0.04"/>
<path d="M18 9.375H16.75V5.625C16.75 5.29348 16.6183 4.97554 16.3839 4.74112C16.1495 4.5067 15.8315 4.375 15.5 4.375H12.375C12.0435 4.375 11.7255 4.5067 11.4911 4.74112C11.2567 4.97554 11.125 5.29348 11.125 5.625V9.375H9.875V3.75C9.875 3.41848 9.7433 3.10054 9.50888 2.86612C9.27446 2.6317 8.95652 2.5 8.625 2.5H5.5C5.16848 2.5 4.85054 2.6317 4.61612 2.86612C4.3817 3.10054 4.25 3.41848 4.25 3.75V9.375H3C2.83424 9.375 2.67527 9.44085 2.55806 9.55806C2.44085 9.67527 2.375 9.83424 2.375 10C2.375 10.1658 2.44085 10.3247 2.55806 10.4419C2.67527 10.5592 2.83424 10.625 3 10.625H4.25V16.25C4.25 16.5815 4.3817 16.8995 4.61612 17.1339C4.85054 17.3683 5.16848 17.5 5.5 17.5H8.625C8.95652 17.5 9.27446 17.3683 9.50888 17.1339C9.7433 16.8995 9.875 16.5815 9.875 16.25V10.625H11.125V14.375C11.125 14.7065 11.2567 15.0245 11.4911 15.2589C11.7255 15.4933 12.0435 15.625 12.375 15.625H15.5C15.8315 15.625 16.1495 15.4933 16.3839 15.2589C16.6183 15.0245 16.75 14.7065 16.75 14.375V10.625H18C18.1658 10.625 18.3247 10.5592 18.4419 10.4419C18.5592 10.3247 18.625 10.1658 18.625 10C18.625 9.83424 18.5592 9.67527 18.4419 9.55806C18.3247 9.44085 18.1658 9.375 18 9.375ZM8.625 16.25H5.5V3.75H8.625V16.25ZM15.5 14.375H12.375V5.625H15.5V14.375Z" fill="black"/>
</svg>
