<svg width="21" height="20" viewBox="0 0 21 20" fill="none" xmlns="http://www.w3.org/2000/svg">
<path d="M6.75 3.125V16.875H4.25C4.08424 16.875 3.92527 16.8092 3.80806 16.6919C3.69085 16.5747 3.625 16.4158 3.625 16.25V3.75C3.625 3.58424 3.69085 3.42527 3.80806 3.30806C3.92527 3.19085 4.08424 3.125 4.25 3.125H6.75Z" fill="black" fill-opacity="0.04"/>
<path d="M14.875 8.75C14.875 8.91576 14.8092 9.07473 14.6919 9.19194C14.5747 9.30915 14.4158 9.375 14.25 9.375H9.25C9.08424 9.375 8.92527 9.30915 8.80806 9.19194C8.69085 9.07473 8.625 8.91576 8.625 8.75C8.625 8.58424 8.69085 8.42527 8.80806 8.30806C8.92527 8.19085 9.08424 8.125 9.25 8.125H14.25C14.4158 8.125 14.5747 8.19085 14.6919 8.30806C14.8092 8.42527 14.875 8.58424 14.875 8.75ZM14.25 10.625H9.25C9.08424 10.625 8.92527 10.6908 8.80806 10.8081C8.69085 10.9253 8.625 11.0842 8.625 11.25C8.625 11.4158 8.69085 11.5747 8.80806 11.6919C8.92527 11.8092 9.08424 11.875 9.25 11.875H14.25C14.4158 11.875 14.5747 11.8092 14.6919 11.6919C14.8092 11.5747 14.875 11.4158 14.875 11.25C14.875 11.0842 14.8092 10.9253 14.6919 10.8081C14.5747 10.6908 14.4158 10.625 14.25 10.625ZM18 3.75V16.25C18 16.5815 17.8683 16.8995 17.6339 17.1339C17.3995 17.3683 17.0815 17.5 16.75 17.5H4.25C3.91848 17.5 3.60054 17.3683 3.36612 17.1339C3.1317 16.8995 3 16.5815 3 16.25V3.75C3 3.41848 3.1317 3.10054 3.36612 2.86612C3.60054 2.6317 3.91848 2.5 4.25 2.5H16.75C17.0815 2.5 17.3995 2.6317 17.6339 2.86612C17.8683 3.10054 18 3.41848 18 3.75ZM4.25 16.25H6.125V3.75H4.25V16.25ZM16.75 16.25V3.75H7.375V16.25H16.75Z" fill="black"/>
</svg>
