<svg width="16" height="16" viewBox="0 0 16 16" fill="none" xmlns="http://www.w3.org/2000/svg">
<path d="M6.24997 7.27688C6.326 7.23298 6.38912 7.16985 6.43301 7.09381C6.4769 7.01778 6.49999 6.93154 6.49997 6.84375V2.34375C6.49952 2.26403 6.48002 2.18558 6.4431 2.11493C6.40617 2.04428 6.35288 1.98349 6.28769 1.93762C6.22249 1.89175 6.14727 1.86213 6.0683 1.85124C5.98933 1.84035 5.9089 1.84849 5.83372 1.875C4.37433 2.39151 3.14704 3.41165 2.37248 4.75204C1.59792 6.09244 1.32688 7.66516 1.60809 9.1875C1.62267 9.26622 1.65594 9.34029 1.7051 9.40348C1.75426 9.46667 1.81787 9.51714 1.89059 9.55062C1.95613 9.58127 2.02762 9.59706 2.09997 9.59688C2.18773 9.59691 2.27395 9.57384 2.34997 9.53L6.24997 7.27688ZM5.49997 3.10125V6.555L2.50747 8.28187C2.49997 8.1875 2.49997 8.0925 2.49997 8C2.50086 6.98648 2.7814 5.99285 3.31072 5.12853C3.84003 4.2642 4.59758 3.5627 5.49997 3.10125ZM14.5 8C14.5005 9.42695 14.0314 10.8144 13.1651 11.9483C12.2988 13.0822 11.0835 13.8996 9.70656 14.2742C8.32967 14.6489 6.86775 14.56 5.54636 14.0214C4.22498 13.4827 3.11756 12.5242 2.39497 11.2937C2.36128 11.2369 2.3392 11.174 2.32999 11.1085C2.32077 11.0431 2.32462 10.9765 2.3413 10.9126C2.35798 10.8487 2.38716 10.7887 2.42716 10.7361C2.46716 10.6835 2.51719 10.6394 2.57434 10.6062L7.49997 7.73938V2C7.49997 1.86739 7.55265 1.74021 7.64642 1.64645C7.74018 1.55268 7.86736 1.5 7.99997 1.5C9.13426 1.50058 10.2487 1.79783 11.2326 2.36225C12.2165 2.92667 13.0356 3.73863 13.6087 4.7175C13.6156 4.7275 13.6218 4.7375 13.6281 4.74813C13.6343 4.75875 13.6406 4.77125 13.6462 4.7825C14.207 5.76198 14.5014 6.87133 14.5 8Z" fill="black"/>
</svg>
