<svg width="21" height="20" viewBox="0 0 21 20" fill="none" xmlns="http://www.w3.org/2000/svg">
<path d="M16.125 2.5H4.875C4.70924 2.5 4.55027 2.56585 4.43306 2.68306C4.31585 2.80027 4.25 2.95924 4.25 3.125V16.875C4.25 17.0408 4.31585 17.1997 4.43306 17.3169C4.55027 17.4342 4.70924 17.5 4.875 17.5H16.125C16.2908 17.5 16.4497 17.4342 16.5669 17.3169C16.6842 17.1997 16.75 17.0408 16.75 16.875V3.125C16.75 2.95924 16.6842 2.80027 16.5669 2.68306C16.4497 2.56585 16.2908 2.5 16.125 2.5ZM10.5 13.125C10.0055 13.125 9.5222 12.9784 9.11107 12.7037C8.69995 12.429 8.37952 12.0385 8.1903 11.5817C8.00108 11.1249 7.95157 10.6222 8.04804 10.1373C8.1445 9.65232 8.3826 9.20686 8.73223 8.85723C9.08186 8.5076 9.52732 8.2695 10.0123 8.17304C10.4972 8.07657 10.9999 8.12608 11.4567 8.3153C11.9135 8.50452 12.304 8.82495 12.5787 9.23607C12.8534 9.6472 13 10.1305 13 10.625C13 11.288 12.7366 11.9239 12.2678 12.3928C11.7989 12.8616 11.163 13.125 10.5 13.125Z" fill="black" fill-opacity="0.04"/>
<path d="M6.37422 15.5C6.4399 15.5494 6.51468 15.5853 6.59426 15.6057C6.67385 15.6262 6.75669 15.6307 6.83803 15.6191C6.91937 15.6075 6.99763 15.58 7.06832 15.5381C7.13901 15.4962 7.20075 15.4408 7.25 15.375C7.62841 14.8705 8.11909 14.4609 8.6832 14.1789C9.2473 13.8968 9.86932 13.75 10.5 13.75C11.1307 13.75 11.7527 13.8968 12.3168 14.1789C12.8809 14.4609 13.3716 14.8705 13.75 15.375C13.7992 15.4407 13.8609 15.496 13.9316 15.5378C14.0022 15.5796 14.0804 15.6071 14.1616 15.6187C14.2429 15.6303 14.3256 15.6258 14.4051 15.6054C14.4846 15.5851 14.5593 15.5492 14.625 15.5C14.6907 15.4508 14.746 15.3891 14.7878 15.3184C14.8296 15.2478 14.8571 15.1696 14.8687 15.0884C14.8803 15.0071 14.8758 14.9244 14.8554 14.8449C14.8351 14.7654 14.7992 14.6907 14.75 14.625C14.1966 13.883 13.4586 13.2988 12.6094 12.9305C13.0748 12.5056 13.4008 11.9499 13.5447 11.3364C13.6887 10.7229 13.6438 10.0802 13.4159 9.49267C13.188 8.90514 12.7879 8.40023 12.2679 8.0442C11.748 7.68816 11.1325 7.49765 10.5023 7.49765C9.87218 7.49765 9.25673 7.68816 8.73678 8.0442C8.21682 8.40023 7.81666 8.90514 7.58879 9.49267C7.36093 10.0802 7.31602 10.7229 7.45995 11.3364C7.60388 11.9499 7.92993 12.5056 8.39531 12.9305C7.5444 13.2981 6.80472 13.8824 6.25 14.625C6.15046 14.7575 6.10763 14.9241 6.13092 15.0882C6.15422 15.2523 6.24173 15.4004 6.37422 15.5ZM10.5 8.75C10.8708 8.75 11.2334 8.85997 11.5417 9.06599C11.85 9.27202 12.0904 9.56486 12.2323 9.90747C12.3742 10.2501 12.4113 10.6271 12.339 10.9908C12.2666 11.3545 12.088 11.6886 11.8258 11.9508C11.5636 12.213 11.2295 12.3916 10.8658 12.464C10.5021 12.5363 10.1251 12.4992 9.78247 12.3573C9.43986 12.2154 9.14702 11.975 8.94099 11.6667C8.73497 11.3584 8.625 10.9958 8.625 10.625C8.625 10.1277 8.82254 9.65081 9.17417 9.29917C9.52581 8.94754 10.0027 8.75 10.5 8.75ZM16.125 1.875H4.875C4.54348 1.875 4.22554 2.0067 3.99112 2.24112C3.7567 2.47554 3.625 2.79348 3.625 3.125V16.875C3.625 17.2065 3.7567 17.5245 3.99112 17.7589C4.22554 17.9933 4.54348 18.125 4.875 18.125H16.125C16.4565 18.125 16.7745 17.9933 17.0089 17.7589C17.2433 17.5245 17.375 17.2065 17.375 16.875V3.125C17.375 2.79348 17.2433 2.47554 17.0089 2.24112C16.7745 2.0067 16.4565 1.875 16.125 1.875ZM16.125 16.875H4.875V3.125H16.125V16.875ZM7.375 5C7.375 4.83424 7.44085 4.67527 7.55806 4.55806C7.67527 4.44085 7.83424 4.375 8 4.375H13C13.1658 4.375 13.3247 4.44085 13.4419 4.55806C13.5592 4.67527 13.625 4.83424 13.625 5C13.625 5.16576 13.5592 5.32473 13.4419 5.44194C13.3247 5.55915 13.1658 5.625 13 5.625H8C7.83424 5.625 7.67527 5.55915 7.55806 5.44194C7.44085 5.32473 7.375 5.16576 7.375 5Z" fill="black"/>
</svg>
